<?xml version="1.0" encoding="UTF-8"?>
<svg id="a" xmlns="http://www.w3.org/2000/svg" viewBox="0 0 834 392">
  <defs>
    <style>
      .cls-1, .cls-2, .cls-3, .cls-4, .cls-5 {
        isolation: isolate;
      }

      .cls-1, .cls-2, .cls-4, .cls-5 {
        font-family: NatomPro-Medium, 'Natom Pro';
        font-size: 120px;
        font-weight: 500;
      }

      .cls-1, .cls-2, .cls-4, .cls-5, .cls-6 {
        fill: #fff;
      }

      .cls-2 {
        letter-spacing: -.05em;
      }

      .cls-4 {
        letter-spacing: -.1em;
      }

      .cls-5 {
        letter-spacing: -.04em;
      }

      .cls-6 {
        stroke-width: 0px;
      }
    </style>
  </defs>
  <path class="cls-6" d="m163.76,10c-65.09,0-96.71,56.33-96.71,94.64,0,62.64,94.46,194.57,96.89,194.57,2.06,0,97.64-136.78,97.64-193.91,0-37.98-32.73-95.3-97.82-95.3h0Zm-60.61,87.59c-.55-24.35,8.54-37.25,22.34-38.11,13.8-.86,27.25,18.23,28.97,42.52,1.8,25.51-5.05,38.81-5.05,38.81l-30.3,7.47s-15.15-14.9-15.95-50.69h0Zm55.93,73.1c-.25,6.73-2.58,14.48-9.81,17.21-7.24,2.73-14.01-.41-17.93-4.99-11.39-13.32-9.47-28.18-9.47-28.18l29.17-8.04s8.53,10.84,8.04,24h0Zm37,51.29c-3.92,4.59-10.69,7.73-17.93,4.99-7.24-2.73-9.56-10.49-9.81-17.21-.5-13.16,8.04-24,8.04-24l29.17,8.04s1.93,14.86-9.47,28.18Zm28.01-85.59c-.8,35.78-15.95,50.69-15.95,50.69l-30.3-7.47s-6.85-13.29-5.05-38.81c1.72-24.29,15.17-43.38,28.97-42.52s22.89,13.77,22.34,38.11h0Z"/>
  <path class="cls-6" d="m305.72,322.94c0,30.76-63.49,55.7-141.8,55.7s-141.8-24.94-141.8-55.7c0-20.17,27.3-37.84,68.18-47.61,0,0-33.82,13.87-30.09,31.77,3.29,15.79,39.17,35.88,105.78,35.67,71.44-.22,101.15-22.24,101.19-38.75.04-16.7-30-27.9-29.06-27.74,39.35,6.71,67.6,27.16,67.6,46.67h0Z"/>
  <g class="cls-3">
    <text class="cls-1" transform="translate(326 159)"><tspan x="0" y="0">S</tspan></text>
    <text class="cls-1" transform="translate(391.28 159)"><tspan x="0" y="0">a</tspan></text>
    <text class="cls-2" transform="translate(470.24 159)"><tspan x="0" y="0">f</tspan></text>
    <text class="cls-1" transform="translate(517.4 159)"><tspan x="0" y="0">e</tspan></text>
    <text class="cls-5" transform="translate(586.04 159)"><tspan x="0" y="0">r</tspan></text>
    <text class="cls-4" transform="translate(326 303)"><tspan x="0" y="0">W</tspan></text>
    <text class="cls-1" transform="translate(447.44 303)"><tspan x="0" y="0">alking</tspan></text>
  </g>
</svg>